<svg xmlns="http://www.w3.org/2000/svg" viewBox="0 0 30 30"><defs><style>.cls-1{fill:#89191b;}.cls-2{fill:#fff;}</style></defs><g id="Layer_2" data-name="Layer 2"><g id="Layer_1-2" data-name="Layer 1"><circle class="cls-1" cx="15" cy="15" r="15"/><path class="cls-2" d="M21.5,11.12a4.18,4.18,0,0,1-.95,1.56c-1.72,2.35-3.46,4.69-5.18,7a2,2,0,0,1-1.2.81,1.85,1.85,0,0,1-1.86-.6l-3.4-3.78a1.48,1.48,0,0,1,.79-2.48,1.42,1.42,0,0,1,1.4.48l1.38,1.53,1,1.1c.15.17.25.16.39,0l4.92-6.66A1.48,1.48,0,0,1,21,9.77a1.46,1.46,0,0,1,.5.85l0,.07Z"/></g></g></svg>