<svg xmlns="http://www.w3.org/2000/svg" width="104.226" height="30" viewBox="0 0 104.226 30">
  <g transform="translate(-211.86 -144)">
    <!-- Blue line with stroke color changed to blue (#07294d) -->
    <line x2="73.636" transform="translate(241.7 159)" fill="none" stroke="#07294d" stroke-linecap="round" stroke-miterlimit="10" stroke-width="1.5" stroke-dasharray="4"/>
    <!-- Blue circle with fill color changed to blue (#07294d) -->
    <circle cx="15" cy="15" r="15" transform="translate(211.86 144)" fill="#07294d"/>
    <!-- Blue path with fill color changed to blue (#07294d) -->
    <path d="M4688.36,155.118a4.229,4.229,0,0,1-.953,1.563c-1.72,2.35-3.455,4.691-5.182,7.037a1.958,1.958,0,0,1-1.2.817,1.862,1.862,0,0,1-1.857-.608q-1.711-1.883-3.407-3.78a1.477,1.477,0,0,1,.793-2.472,1.419,1.419,0,0,1,1.4.471c.466.508.924,1.023,1.386,1.536l.985,1.094c.154.171.254.166.392-.023q2.458-3.333,4.915-6.666a1.486,1.486,0,0,1,2.2-.315,1.461,1.461,0,0,1,.5.846.405.405,0,0,0,.026.068Z" transform="translate(-4455)" fill="white"/>
  </g>
</svg>
